<svg width="66" height="66" viewBox="0 0 66 66" fill="none" xmlns="http://www.w3.org/2000/svg">
<path d="M14.8831 64.2008V8.70085C14.8831 7.06534 15.5328 5.49683 16.6893 4.34035C17.8458 3.18388 19.4143 2.53418 21.0498 2.53418H45.7165C47.352 2.53418 48.9205 3.18388 50.077 4.34035C51.2334 5.49683 51.8831 7.06534 51.8831 8.70085V64.2008M14.8831 64.2008H51.8831M14.8831 64.2008H8.71647C7.08097 64.2008 5.51245 63.5511 4.35598 62.3947C3.1995 61.2382 2.5498 59.6697 2.5498 58.0342V39.5342C2.5498 37.8987 3.1995 36.3302 4.35598 35.1737C5.51245 34.0172 7.08097 33.3675 8.71647 33.3675H14.8831M51.8831 64.2008H58.0498C59.6853 64.2008 61.2538 63.5511 62.4103 62.3947C63.5668 61.2382 64.2165 59.6697 64.2165 58.0342V30.2842C64.2165 28.6487 63.5668 27.0802 62.4103 25.9237C61.2538 24.7672 59.6853 24.1175 58.0498 24.1175H51.8831M27.2165 14.8675H39.5498M27.2165 27.2008H39.5498M27.2165 39.5342H39.5498M27.2165 51.8675H39.5498" stroke="#118AC5" stroke-width="3.5" stroke-linecap="round" stroke-linejoin="round"/>
</svg>
