<svg width="74" height="74" viewBox="0 0 74 74" fill="none" xmlns="http://www.w3.org/2000/svg">
<path d="M2.69629 72.0547V47.388M2.69629 47.388H72.0713M2.69629 47.388V36.5964C2.69629 36.1875 2.85871 35.7953 3.14783 35.5062C3.43695 35.2171 3.82908 35.0547 4.23796 35.0547H70.5296C70.9385 35.0547 71.3306 35.2171 71.6197 35.5062C71.9089 35.7953 72.0713 36.1875 72.0713 36.5964V47.388M72.0713 47.388H44.3213V70.513C44.3213 70.9219 44.4837 71.314 44.7728 71.6031C45.0619 71.8923 45.4541 72.0547 45.863 72.0547H70.5296C70.9385 72.0547 71.3306 71.8923 71.6197 71.6031C71.9089 71.314 72.0713 70.9219 72.0713 70.513V47.388ZM44.3213 59.7214H72.0713M30.4463 25.8047V35.0547M16.5713 2.67969H44.3213C44.3213 2.67969 48.9463 2.67969 48.9463 7.30469V21.1797C48.9463 21.1797 48.9463 25.8047 44.3213 25.8047H16.5713C16.5713 25.8047 11.9463 25.8047 11.9463 21.1797V7.30469C11.9463 7.30469 11.9463 2.67969 16.5713 2.67969Z" stroke="#118AC5" stroke-width="3.5" stroke-linecap="round" stroke-linejoin="round"/>
</svg>
