<svg width="88" height="75" viewBox="0 0 88 75" fill="none" xmlns="http://www.w3.org/2000/svg">
<path d="M18.3838 61.8672C18.3838 63.9889 19.2266 66.0237 20.7269 67.524C22.2272 69.0243 24.2621 69.8672 26.3838 69.8672C28.5055 69.8672 30.5404 69.0243 32.0406 67.524C33.5409 66.0237 34.3838 63.9889 34.3838 61.8672C34.3838 59.7455 33.5409 57.7106 32.0406 56.2103C30.5404 54.71 28.5055 53.8672 26.3838 53.8672C24.2621 53.8672 22.2272 54.71 20.7269 56.2103C19.2266 57.7106 18.3838 59.7455 18.3838 61.8672ZM58.3838 61.8672C58.3838 63.9889 59.2266 66.0237 60.7269 67.524C62.2272 69.0243 64.2621 69.8672 66.3838 69.8672C68.5055 69.8672 70.5403 69.0243 72.0406 67.524C73.5409 66.0237 74.3838 63.9889 74.3838 61.8672C74.3838 59.7455 73.5409 57.7106 72.0406 56.2103C70.5403 54.71 68.5055 53.8672 66.3838 53.8672C64.2621 53.8672 62.2272 54.71 60.7269 56.2103C59.2266 57.7106 58.3838 59.7455 58.3838 61.8672Z" stroke="#118AC5" stroke-width="3" stroke-linecap="round" stroke-linejoin="round"/>
<path d="M18.3838 61.8672H10.3838V45.8672M6.38379 13.8672H50.3838V61.8672M34.3838 61.8672H58.3838M74.3838 61.8672H82.3838V37.8672M82.3838 37.8672H50.3838M82.3838 37.8672L63.8838 17.8672H50.3838M10.3838 29.8672H26.3838M2.38379 37.8672H18.3838M2.38379 22.3672H18.3838" stroke="#118AC5" stroke-width="3" stroke-linecap="round" stroke-linejoin="round"/>
</svg>
