<svg width="73" height="73" viewBox="0 0 73 73" fill="none" xmlns="http://www.w3.org/2000/svg">
<path d="M71.2588 0.367188H1.50879C1.21042 0.367188 0.924272 0.485714 0.713294 0.696692C0.502316 0.907671 0.383789 1.19382 0.383789 1.49219L0.383789 71.2422C0.383789 71.5406 0.502316 71.8267 0.713294 72.0377C0.924272 72.2487 1.21042 72.3672 1.50879 72.3672H71.2588C71.5572 72.3672 71.8433 72.2487 72.0543 72.0377C72.2653 71.8267 72.3838 71.5406 72.3838 71.2422V1.49219C72.3838 1.19382 72.2653 0.907671 72.0543 0.696692C71.8433 0.485714 71.5572 0.367188 71.2588 0.367188V0.367188ZM70.1338 70.1172H2.63379V2.61719H70.1338V70.1172Z" fill="#118AC5"/>
<path d="M7.13379 35.2422H34.1338C34.4322 35.2422 34.7183 35.1237 34.9293 34.9127C35.1403 34.7017 35.2588 34.4156 35.2588 34.1172V7.11719C35.2588 6.81882 35.1403 6.53267 34.9293 6.32169C34.7183 6.11071 34.4322 5.99219 34.1338 5.99219H7.13379C6.83542 5.99219 6.54927 6.11071 6.33829 6.32169C6.12732 6.53267 6.00879 6.81882 6.00879 7.11719V34.1172C6.00879 34.4156 6.12732 34.7017 6.33829 34.9127C6.54927 35.1237 6.83542 35.2422 7.13379 35.2422ZM16.5995 32.9922L27.0542 22.5376L25.4634 20.9468L13.418 32.9922H9.84954L33.0088 9.83294V32.9922H16.5995ZM24.668 8.24219L13.0884 19.8218L14.6792 21.4126L27.8495 8.24219H31.418L8.25879 31.4014V8.24219H24.668Z" fill="#118AC5"/>
<path d="M38.6338 35.2422H65.6338C65.9322 35.2422 66.2183 35.1237 66.4293 34.9127C66.6403 34.7017 66.7588 34.4156 66.7588 34.1172V7.11719C66.7588 6.81882 66.6403 6.53267 66.4293 6.32169C66.2183 6.11071 65.9322 5.99219 65.6338 5.99219H38.6338C38.3354 5.99219 38.0493 6.11071 37.8383 6.32169C37.6273 6.53267 37.5088 6.81882 37.5088 7.11719V34.1172C37.5088 34.4156 37.6273 34.7017 37.8383 34.9127C38.0493 35.1237 38.3354 35.2422 38.6338 35.2422ZM39.7588 8.24219H64.5088V32.9922H39.7588V8.24219Z" fill="#118AC5"/>
<path d="M7.13379 66.7422H34.1338C34.4322 66.7422 34.7183 66.6237 34.9293 66.4127C35.1403 66.2017 35.2588 65.9156 35.2588 65.6172V38.6172C35.2588 38.3188 35.1403 38.0327 34.9293 37.8217C34.7183 37.6107 34.4322 37.4922 34.1338 37.4922H7.13379C6.83542 37.4922 6.54927 37.6107 6.33829 37.8217C6.12732 38.0327 6.00879 38.3188 6.00879 38.6172V65.6172C6.00879 65.9156 6.12732 66.2017 6.33829 66.4127C6.54927 66.6237 6.83542 66.7422 7.13379 66.7422ZM8.25879 39.7422H33.0088V64.4922H8.25879V39.7422Z" fill="#118AC5"/>
<path d="M38.6338 66.7422H65.6338C65.9322 66.7422 66.2183 66.6237 66.4293 66.4127C66.6403 66.2017 66.7588 65.9156 66.7588 65.6172V38.6172C66.7588 38.3188 66.6403 38.0327 66.4293 37.8217C66.2183 37.6107 65.9322 37.4922 65.6338 37.4922H38.6338C38.3354 37.4922 38.0493 37.6107 37.8383 37.8217C37.6273 38.0327 37.5088 38.3188 37.5088 38.6172V65.6172C37.5088 65.9156 37.6273 66.2017 37.8383 66.4127C38.0493 66.6237 38.3354 66.7422 38.6338 66.7422ZM48.0995 64.4922L58.5542 54.0376L56.9634 52.4468L44.918 64.4922H41.3495L64.5088 41.3329V64.4922H48.0995ZM56.168 39.7422L44.5884 51.3218L46.1792 52.9126L59.3495 39.7422H62.918L39.7588 62.9014V39.7422H56.168Z" fill="#118AC5"/>
</svg>
