<svg width="370" height="227" viewBox="0 0 370 227" fill="none" xmlns="http://www.w3.org/2000/svg">
<path opacity="0.1" d="M2.8433 -24.1752L196.052 85.3496M196.052 85.3496L188.212 98.113C186.776 100.451 187.492 103.51 189.817 104.967L203.543 113.569M196.052 85.3496L209.454 62.2446M203.543 113.569L186.886 141.346C186.191 142.504 185.995 143.895 186.342 145.2L194.613 176.358L197.134 178.891M203.543 113.569L233.06 60.2661M197.134 178.891L287.249 23.5421M197.134 178.891L194.222 194.511C193.533 198.204 197.012 201.309 200.604 200.207L214.193 196.037M311.331 31.6446L313.872 34.1983C314.807 35.1385 316.078 35.6685 317.404 35.6717L352.586 35.7575C354.125 35.7612 355.084 37.4295 354.311 38.761L348.969 47.9709C348.072 49.5167 346.419 50.4664 344.632 50.462L326.038 50.4167C325.268 50.4149 324.785 51.247 325.168 51.9146L334.934 68.9258C335.823 70.4744 335.819 72.3796 334.923 73.9241L322.968 94.533M311.331 31.6446L214.193 196.037M311.331 31.6446L312.061 21.9336C312.834 11.6571 300.362 6.00992 293.149 13.3706V13.3706L287.249 23.5421M214.193 196.037L216.991 198.849L241.064 223.044C243.383 225.375 247.283 224.871 248.933 222.026L258.975 204.714M301.193 132.07L289.692 151.898C288.795 153.444 287.141 154.394 285.354 154.389L265.904 154.342C265.134 154.34 264.651 155.172 265.034 155.84L274.686 172.652C275.575 174.2 275.571 176.106 274.675 177.65L258.975 204.714M301.193 132.07L284.181 122.371M301.193 132.07L322.968 94.533M322.968 94.533L304.065 86.8833M258.975 204.714L245.969 185.825M289.598 179.573L321.536 199.526M302.421 150.94L327.707 165.902M318.958 122.912L367.253 150.961M336.424 96.0623L363.605 111.059M287.249 23.5421L254.356 26.7688C252.731 26.9281 251.287 27.8705 250.487 29.2931L233.06 60.2661M233.06 60.2661L220.587 53.0223C218.199 51.6349 215.137 52.4476 213.751 54.8371L209.454 62.2446M209.454 62.2446L38.5012 -37.0414" stroke="#2297BA" stroke-width="4" stroke-linecap="round"/>
</svg>
