<svg width="33" height="34" viewBox="0 0 33 34" fill="none" xmlns="http://www.w3.org/2000/svg">
<path d="M17.9916 0.25C19.2677 0.25 20.4232 0.95875 21.0613 2.005C21.3717 2.51125 21.5786 3.13562 21.5269 3.79375C21.4924 4.3 21.6476 4.80625 21.9235 5.27875C22.8031 6.71313 24.7518 7.25313 26.2694 6.44313C27.9767 5.46438 30.1324 6.055 31.1154 7.72562L32.2709 9.71688C33.2711 11.3875 32.7193 13.5306 30.9947 14.4925C29.5288 15.3531 29.0115 17.26 29.891 18.7112C30.1669 19.1669 30.4773 19.555 30.9602 19.7913C31.5638 20.1119 32.0294 20.6181 32.3571 21.1244C32.9952 22.1706 32.9434 23.4531 32.3226 24.5837L31.1154 26.6087C30.4773 27.6887 29.2874 28.3638 28.063 28.3638C27.4594 28.3638 26.7868 28.195 26.2349 27.8575C25.7865 27.5706 25.2692 27.4694 24.7173 27.4694C23.01 27.4694 21.5786 28.87 21.5269 30.5406C21.5269 32.4813 19.9403 34 17.9571 34H15.6117C13.6112 34 12.0246 32.4813 12.0246 30.5406C11.9901 28.87 10.5587 27.4694 8.85144 27.4694C8.28233 27.4694 7.76497 27.5706 7.33383 27.8575C6.78197 28.195 6.09215 28.3638 5.5058 28.3638C4.26413 28.3638 3.07418 27.6887 2.4361 26.6087L1.24616 24.5837C0.608074 23.4869 0.573583 22.1706 1.21167 21.1244C1.4876 20.6181 2.00496 20.1119 2.59131 19.7913C3.07418 19.555 3.3846 19.1669 3.67778 18.7112C4.54005 17.26 4.02269 15.3531 2.55682 14.4925C0.849511 13.5306 0.297654 11.3875 1.28065 9.71688L2.4361 7.72562C3.43634 6.055 5.57479 5.46438 7.29934 6.44313C8.7997 7.25313 10.7484 6.71313 11.628 5.27875C11.9039 4.80625 12.0591 4.3 12.0246 3.79375C11.9901 3.13562 12.1798 2.51125 12.5075 2.005C13.1456 0.95875 14.301 0.28375 15.5599 0.25H17.9916ZM16.8016 12.3663C14.0941 12.3663 11.9039 14.4925 11.9039 17.1419C11.9039 19.7913 14.0941 21.9006 16.8016 21.9006C19.5092 21.9006 21.6476 19.7913 21.6476 17.1419C21.6476 14.4925 19.5092 12.3663 16.8016 12.3663Z" fill="#FFBA18"/>
</svg>
