<svg width="27" height="33" viewBox="0 0 27 33" fill="none" xmlns="http://www.w3.org/2000/svg">
<path d="M11.5588 1.54342C12.0284 -0.248083 14.5716 -0.248082 15.0412 1.54342L17.2305 9.89611C17.3591 10.3867 17.6887 10.8003 18.1382 11.0352L25.546 14.905C26.8347 15.5782 26.8347 17.4226 25.546 18.0958L18.1382 21.9656C17.6887 22.2005 17.3591 22.6141 17.2305 23.1047L15.0412 31.4574C14.5716 33.2489 12.0284 33.2489 11.5588 31.4574L9.36952 23.1047C9.24092 22.6141 8.91132 22.2005 8.46178 21.9656L1.05402 18.0958C-0.234719 17.4226 -0.234717 15.5782 1.05402 14.905L8.46178 11.0352C8.91132 10.8003 9.24092 10.3867 9.36952 9.89611L11.5588 1.54342Z" fill="#FFBA18"/>
</svg>
