<svg width="41" height="41" viewBox="0 0 41 41" fill="none" xmlns="http://www.w3.org/2000/svg">
<path d="M27.2358 3.60505C27.1548 4.1113 27.1143 4.61754 27.1143 5.12378C27.1143 9.67996 30.7998 13.3634 35.3357 13.3634C35.842 13.3634 36.328 13.3047 36.8342 13.2237V29.5631C36.8342 36.4298 32.7843 40.5 25.8994 40.5H10.9369C4.04994 40.5 0 36.4298 0 29.5631V14.5804C0 7.69549 4.04994 3.60505 10.9369 3.60505H27.2358ZM27.6429 15.9169C27.0941 15.8561 26.5494 16.0991 26.2234 16.5446L21.325 22.8828L15.7138 18.4683C15.3695 18.2051 14.9645 18.1018 14.5595 18.1443C14.1566 18.2051 13.7921 18.4258 13.547 18.7498L7.55516 26.548L7.43164 26.7302C7.08739 27.3762 7.24939 28.2064 7.85688 28.6539C8.14038 28.8362 8.44412 28.9577 8.78837 28.9577C9.25614 28.9779 9.6996 28.7329 9.9831 28.3502L15.0658 21.8075L20.8369 26.143L21.0192 26.2624C21.6672 26.6067 22.4772 26.4467 22.9429 25.8372L28.7951 18.2861L28.7141 18.3266C29.0381 17.8811 29.0988 17.3141 28.8761 16.8079C28.6553 16.3016 28.1673 15.9574 27.6429 15.9169ZM35.6194 0C38.3126 0 40.4996 2.18697 40.4996 4.88018C40.4996 7.57339 38.3126 9.76035 35.6194 9.76035C32.9262 9.76035 30.7392 7.57339 30.7392 4.88018C30.7392 2.18697 32.9262 0 35.6194 0Z" fill="#FFBA18"/>
</svg>
